True Blood S05E10 HDTV DivX-Atilla82

 
http://www.imdb.com/title/tt0844441/


In a world where vampires have "come out of the coffin", Sookie Stackhouse, a telepathic waitress, discovers a new world of different creatures when she meets Bill Compton, a vampire. 


General
Complete name : True.Blood.S05E10.HDTV.DivX-Atilla82.avi
Format : AVI
Format/Info : Audio Video Interleave
File size : 401 MiB
Duration : 50mn 4s
Overall bit rate : 1 120 Kbps
Writing application : VirtualDubMod 1.5.10.2 (build 2540/release)
Writing library : VirtualDubMod build 2540/release

Video
ID : 0
Format : MPEG-4 Visual
Format settings, BVOP : 1
Format settings, QPel : No
Format settings, GMC : No warppoints
Format settings, Matrix : Default (H.263)
Muxing mode : Packed bitstream
Codec ID : DX50
Codec ID/Hint : DivX 5
Duration : 50mn 4s
Bit rate : 982 Kbps
Width : 680 pixels
Height : 384 pixels
Display aspect ratio : 16:9
Frame rate : 23.976 fps
Color space : YUV
Chroma subsampling : 4:2:0
Bit depth : 8 bits
Scan type : Progressive
Compression mode : Lossy
Bits/(Pixel*Frame) : 0.157
Stream size : 352 MiB (88%)
Writing library : DivX 3330

Audio
ID : 1
Format : MPEG Audio
Format version : Version 1
Format profile : Layer 3
Mode : Joint stereo
Mode extension : MS Stereo
Codec ID : 55
Codec ID/Hint : MP3
Duration : 50mn 4s
Bit rate mode : Constant
Bit rate : 128 Kbps
Channel(s) : 2 channels
Sampling rate : 44.1 KHz
Compression mode : Lossy
Stream size : 45.8 MiB (11%)
Alignment : Split accross interleaves
Interleave, duration : 42 ms (1.00 video frame)
Interleave, preload duration : 500 ms


SCREENSHOTS 
http://www.pohrani.com/f/5/Lc/3aNEnm7/screens.jpg




